<svg width="24" height="24" viewBox="0 0 24 24" fill="none" xmlns="http://www.w3.org/2000/svg">
<path fill-rule="evenodd" clip-rule="evenodd" d="M12 4C7.58172 4 4 7.58172 4 12C4 16.4183 7.58172 20 12 20C16.4183 20 20 16.4183 20 12C20 7.58172 16.4183 4 12 4ZM2 12C2 6.47715 6.47715 2 12 2C17.5228 2 22 6.47715 22 12C22 17.5228 17.5228 22 12 22C6.47715 22 2 17.5228 2 12Z" fill="#6B92FF"/>
<path d="M8.96443 11.1772C8.51092 10.7338 7.78036 10.7385 7.33269 11.1877C6.88501 11.6369 6.88974 12.3605 7.34325 12.8039L10.2751 15.6705C10.7575 16.1421 11.5443 16.1023 11.9757 15.5845L16.7361 9.87025C17.1417 9.38341 17.072 8.66309 16.5805 8.26138C16.089 7.85967 15.3617 7.92868 14.9561 8.41552L10.9986 13.1661L8.96443 11.1772Z" fill="#6B92FF"/>
</svg>
