<svg width="24" height="24" viewBox="0 0 24 24" fill="none" xmlns="http://www.w3.org/2000/svg">
<g clip-path="url(#clip0_554_2415)">
<path d="M12.7071 18.2929C12.3166 17.9024 11.6834 17.9024 11.2929 18.2929C10.9024 18.6834 10.9024 19.3166 11.2929 19.7071L12.5858 21L11.2929 22.2929C10.9024 22.6834 10.9024 23.3166 11.2929 23.7071C11.6834 24.0976 12.3166 24.0976 12.7071 23.7071L14 22.4142L15.2929 23.7071C15.6834 24.0976 16.3166 24.0976 16.7071 23.7071C17.0976 23.3166 17.0976 22.6834 16.7071 22.2929L15.4142 21L16.7071 19.7071C17.0976 19.3166 17.0976 18.6834 16.7071 18.2929C16.3166 17.9024 15.6834 17.9024 15.2929 18.2929L14 19.5858L12.7071 18.2929Z" fill="#6B92FF"/>
<path fill-rule="evenodd" clip-rule="evenodd" d="M9 6.00006H5.8C4.94342 6.00006 4.36113 6.00084 3.91104 6.03761C3.47262 6.07343 3.24842 6.13836 3.09202 6.21805C2.7157 6.4098 2.40973 6.71576 2.21799 7.09208C2.1383 7.24848 2.07337 7.47269 2.03755 7.9111C2.00078 8.36119 2 8.94348 2 9.80006V18.2001C2 19.0566 2.00078 19.6389 2.03755 20.089C2.07337 20.5274 2.1383 20.7516 2.21799 20.908C2.40973 21.2844 2.7157 21.5903 3.09202 21.7821C3.24842 21.8618 3.47262 21.9267 3.91104 21.9625C4.36113 21.9993 4.94342 22.0001 5.8 22.0001H9C9.55229 22.0001 10 22.4478 10 23.0001C10 23.5523 9.55229 24.0001 9 24.0001H5.75868C4.95372 24.0001 4.28937 24.0001 3.74818 23.9559C3.18608 23.9099 2.66937 23.8114 2.18404 23.5641C1.43139 23.1806 0.819469 22.5687 0.435975 21.816C0.188684 21.3307 0.0901201 20.814 0.0441949 20.2519C-2.2158e-05 19.7107 -1.19522e-05 19.0463 4.11647e-07 18.2414V9.75876C-1.19522e-05 8.9538 -2.21543e-05 8.28943 0.0441949 7.74824C0.0901201 7.18614 0.188684 6.66944 0.435975 6.1841C0.819469 5.43145 1.43139 4.81953 2.18404 4.43604C2.66937 4.18875 3.18608 4.09018 3.74818 4.04426C4.28937 4.00004 4.95373 4.00005 5.7587 4.00006L9.11366 4.00003C9.74865 3.99973 10.2284 3.9995 10.6911 4.11058C11.0993 4.20857 11.4895 4.37019 11.8474 4.5895C12.2531 4.83813 12.5922 5.17756 13.041 5.62678L14.3733 6.95909C14.8225 7.40788 15.1619 7.74699 15.4106 8.15271C15.6299 8.5106 15.7915 8.90078 15.8895 9.30892C16.0006 9.77161 16.0003 10.2514 16 10.8864L16 15.0001C16 15.5523 15.5523 16.0001 15 16.0001C14.4477 16.0001 14 15.5523 14 15.0001V11.0001H12C10.3431 11.0001 9 9.65692 9 8.00006V6.00006ZM13.56 9.00006C13.4398 8.85796 13.2479 8.66216 12.887 8.30128L11.6988 7.11306C11.3379 6.75218 11.1421 6.56026 11 6.44009V8.00006C11 8.55235 11.4477 9.00006 12 9.00006H13.56Z" fill="#6B92FF"/>
<path fill-rule="evenodd" clip-rule="evenodd" d="M16 2.00006H12.8C11.9434 2.00006 11.3611 2.00084 10.911 2.03761C10.4726 2.07343 10.2484 2.13836 10.092 2.21805C9.7157 2.4098 9.40973 2.71576 9.21799 3.09208C9.1383 3.24848 9.07337 3.47269 9.03755 3.9111C9.00078 4.36119 9 5.80006 9 5.80006L7 5.75876C7 5.75876 6.99998 4.28943 7.04419 3.74824C7.09012 3.18614 7.18868 2.66944 7.43598 2.1841C7.81947 1.43145 8.43139 0.81953 9.18404 0.436037C9.66937 0.188746 10.1861 0.0901819 10.7482 0.0442567C11.2894 3.9354e-05 11.9537 4.98449e-05 12.7587 6.26003e-05L16.1137 3.08906e-05C16.7487 -0.000271186 17.2284 -0.000499591 17.6911 0.110583C18.0993 0.20857 18.4895 0.370188 18.8474 0.589502C19.2531 0.838129 19.5922 1.17756 20.041 1.62678L21.3733 2.95909C21.8225 3.40788 22.1619 3.74699 22.4106 4.15271C22.6299 4.5106 22.7915 4.90078 22.8895 5.30892C23.0006 5.77161 23.0003 6.2514 23 6.88638L23 16.0001C23 16.5523 22.5523 17.0001 22 17.0001C21.4477 17.0001 21 16.5523 21 16.0001V7.00006H19C17.3431 7.00006 16 5.65692 16 4.00006V2.00006ZM20.56 5.00006C20.4398 4.85796 20.2479 4.66216 19.887 4.30128L18.6988 3.11306C18.3379 2.75218 18.1421 2.56026 18 2.44009V4.00006C18 4.55235 18.4477 5.00006 19 5.00006H20.56Z" fill="#6B92FF"/>
<path d="M18.306 22.776C20.214 21.414 21.168 20.331 21.168 19.527C21.168 19.035 20.955 18.789 20.529 18.789C20.289 18.789 20.112 18.873 19.998 19.041C19.89 19.209 19.83 19.47 19.818 19.824H18.315C18.351 19.05 18.585 18.468 19.017 18.078C19.449 17.688 19.995 17.493 20.655 17.493C21.345 17.493 21.864 17.667 22.212 18.015C22.566 18.363 22.743 18.816 22.743 19.374C22.743 19.992 22.506 20.598 22.032 21.192C21.558 21.78 20.991 22.278 20.331 22.686H22.842V23.928H18.306V22.776Z" fill="#6B92FF"/>
</g>
<defs>
<clipPath id="clip0_554_2415">
<rect width="24" height="24" fill="white"/>
</clipPath>
</defs>
</svg>
