<svg width="24" height="24" viewBox="0 0 24 24" fill="none" xmlns="http://www.w3.org/2000/svg">
<path d="M4 21C4 20.4477 4.44772 20 5 20H19C19.5523 20 20 20.4477 20 21C20 21.5523 19.5523 22 19 22H5C4.44772 22 4 21.5523 4 21Z" fill="#6B92FF"/>
<path fill-rule="evenodd" clip-rule="evenodd" d="M12.4117 3.17425C13.9738 1.61216 16.5065 1.61217 18.0685 3.17426L18.8259 3.93161C20.388 5.49371 20.388 8.02638 18.8259 9.58847L11.9198 16.4945C11.6424 16.772 11.2895 16.9617 10.905 17.04L6.40144 17.9579C4.99689 18.2442 3.75606 17.0034 4.04229 15.5989L4.9601 11.0951C5.03845 10.7107 5.22816 10.3577 5.50561 10.0803L12.4117 3.17425ZM16.6543 4.58847C15.8733 3.80743 14.607 3.80742 13.8259 4.58847L13.4143 5.00011L17 8.58589L17.4117 8.17426C18.1927 7.39321 18.1927 6.12688 17.4117 5.34583L16.6543 4.58847ZM8.41425 10.0001L12 6.41432L15.5858 10.0001L12 13.5859L8.41425 10.0001ZM7.00003 11.4143L6.91982 11.4945L6.00201 15.9982L10.5056 15.0803L10.5858 15.0001L7.00003 11.4143Z" fill="#6B92FF"/>
</svg>
