<svg width="24" height="24" viewBox="0 0 24 24" fill="none" xmlns="http://www.w3.org/2000/svg">
<path d="M19 21C19 21.5523 18.5523 22 18 22C17.4477 22 17 21.5523 17 21L17 5.41421L15.7071 6.70711C15.3166 7.09763 14.6834 7.09763 14.2929 6.70711C13.9024 6.31658 13.9024 5.68342 14.2929 5.29289L17.2929 2.29289C17.6834 1.90237 18.3166 1.90237 18.7071 2.29289L21.7071 5.29289C22.0976 5.68342 22.0976 6.31658 21.7071 6.70711C21.3166 7.09763 20.6834 7.09763 20.2929 6.70711L19 5.41421V21Z" fill="#6B92FF"/>
<path d="M8.24805 11H6.55469V4.47266L4.5332 5.09961V3.72266L8.06641 2.45703H8.24805V11Z" fill="#B8C6E3"/>
<path d="M8.0957 18.5898C7.6543 19.0234 7.13867 19.2402 6.54883 19.2402C5.79492 19.2402 5.19141 18.9824 4.73828 18.4668C4.28516 17.9473 4.05859 17.248 4.05859 16.3691C4.05859 15.8105 4.17969 15.2988 4.42188 14.834C4.66797 14.3652 5.00977 14.002 5.44727 13.7441C5.88477 13.4824 6.37695 13.3516 6.92383 13.3516C7.48633 13.3516 7.98633 13.4922 8.42383 13.7734C8.86133 14.0547 9.20117 14.459 9.44336 14.9863C9.68555 15.5137 9.80859 16.1172 9.8125 16.7969V17.4238C9.8125 18.8457 9.45898 19.9629 8.75195 20.7754C8.04492 21.5879 7.04297 22.0215 5.74609 22.0762L5.33008 22.082V20.6699L5.70508 20.6641C7.17773 20.5977 7.97461 19.9062 8.0957 18.5898ZM6.96484 17.9453C7.23828 17.9453 7.47266 17.875 7.66797 17.7344C7.86719 17.5938 8.01758 17.4238 8.11914 17.2246V16.5273C8.11914 15.9531 8.00977 15.5078 7.79102 15.1914C7.57227 14.875 7.2793 14.7168 6.91211 14.7168C6.57227 14.7168 6.29297 14.873 6.07422 15.1855C5.85547 15.4941 5.74609 15.8828 5.74609 16.3516C5.74609 16.8164 5.85156 17.1992 6.0625 17.5C6.27734 17.7969 6.57812 17.9453 6.96484 17.9453Z" fill="#6B92FF"/>
</svg>
