<svg width="396" height="227" viewBox="0 0 396 227" fill="none"
  xmlns="http://www.w3.org/2000/svg">
  <g filter="url(#filter0_d_748_33)">
    <path d="M169.273 151.257H141.159V10.4179C141.159 5.63357 137.569 1.74628 132.784 1.44727C128.896 1.44727 126.503 2.94237 124.709 5.33455L101.379 34.3397C98.3885 38.227 101.08 43.9084 106.165 43.9084H107.959C109.754 43.9084 111.549 43.3103 112.745 41.8152L125.905 25.369V151.257H24.5131L81.9385 80.09C84.9295 76.2028 82.2376 70.5213 77.1531 70.5213H75.0595C73.2649 70.5213 71.4704 71.4184 70.274 72.6145L7.46494 150.36C5.3713 153.051 4.77312 155.444 5.07221 157.238C5.3713 161.723 9.25948 165.012 13.7458 165.012H125.905V210.165C125.905 214.351 129.195 217.939 133.382 217.939C137.569 218.238 141.159 214.949 141.159 210.464V165.012H170.17C174.657 165.012 178.844 159.929 176.152 154.846C174.657 152.453 171.965 151.257 169.273 151.257Z" fill="url(#paint0_linear_748_33)"/>
    <path d="M169.273 151.007H141.409V10.4179C141.409 5.50376 137.719 1.50514 132.8 1.19775L132.792 1.19727H132.784C130.807 1.19727 129.196 1.57769 127.847 2.27151C126.499 2.96457 125.425 3.9633 124.511 5.18107L101.185 34.183L101.185 34.183L101.181 34.1872C98.0647 38.2379 100.872 44.1584 106.165 44.1584H107.959C109.806 44.1584 111.683 43.542 112.94 41.9714L125.655 26.0816V151.007H25.0361L82.1331 80.247L82.1332 80.2471L82.1367 80.2425C85.2533 76.1918 82.4463 70.2713 77.1531 70.2713H75.0595C73.1869 70.2713 71.3315 71.2037 70.0973 72.4377L70.0879 72.4471L70.0795 72.4574L7.27044 150.203L7.26762 150.207C5.15104 152.927 4.51423 155.384 4.82359 157.267C5.13858 161.89 9.14585 165.262 13.7458 165.262H125.655V210.165C125.655 214.473 129.04 218.184 133.373 218.189C137.706 218.494 141.409 215.087 141.409 210.464V165.262H170.17C172.506 165.262 174.749 163.942 176.061 161.974C177.379 159.998 177.766 157.358 176.373 154.729L176.369 154.721L176.364 154.713C174.815 152.235 172.034 151.007 169.273 151.007Z" stroke="white" stroke-width="0.5"/>
  </g>
  <g filter="url(#filter1_d_748_33)">
    <path d="M135.583 145.333C122.778 132.615 116.375 126.257 113.976 118.924C111.866 112.474 111.866 105.526 113.976 99.0761C116.375 91.7435 122.778 85.3845 135.583 72.6667L172.166 36.3333C184.972 23.6155 191.375 17.2565 198.758 14.874C205.252 12.7783 212.248 12.7783 218.742 14.874C226.125 17.2565 232.528 23.6155 245.333 36.3333L281.916 72.6667C294.722 85.3845 301.124 91.7435 303.523 99.0761C305.633 105.526 305.633 112.474 303.523 118.924C301.124 126.257 294.722 132.615 281.916 145.333L245.333 181.667C232.528 194.385 226.125 200.743 218.742 203.126C212.248 205.222 205.252 205.222 198.758 203.126C191.375 200.743 184.972 194.385 172.166 181.667L135.583 145.333Z" fill="url(#paint1_linear_748_33)"/>
  </g>
  <g filter="url(#filter2_d_748_33)">
    <path d="M315.707 94.5183L323.476 85.5549C327.36 81.0732 324.372 74.2012 318.396 74.2012C316.604 74.2012 314.512 75.0976 313.317 76.5915L296.287 96.311C293.598 99.2988 292.701 101.988 293.896 104.677C295.091 107.366 298.079 109.159 301.067 109.159H308.238C346.482 109.159 374.567 125.591 374.567 155.171V155.768C374.567 183.854 350.366 202.976 321.982 202.976C295.39 202.976 274.774 191.622 258.341 171.604C257.146 170.11 254.457 168.616 251.768 168.616C247.585 168.616 244 172.201 244 176.384C244 178.476 245.195 180.866 246.091 182.061C263.122 202.677 288.518 217.018 321.683 217.018C358.433 217.018 391 192.22 391 155.171V154.573C391 115.732 356.043 96.9086 315.707 94.5183ZM261.03 15.939H365.902L347.976 36.5549C344.39 41.0366 347.378 47.6098 353.354 47.6098H353.652C355.445 47.6098 357.238 47.0122 358.732 45.5183L385.921 14.1464C387.415 12.3537 388.61 9.96342 388.61 7.57317C388.61 3.68902 385.622 1 381.738 1H261.03C256.549 1 253.262 4.58537 253.262 8.7683C253.561 12.6524 256.848 15.939 261.03 15.939Z" fill="url(#paint2_linear_748_33)"/>
    <path d="M245.891 182.211L245.891 182.211L245.899 182.22C262.973 202.89 288.439 217.268 321.683 217.268C358.531 217.268 391.25 192.394 391.25 155.171V154.573C391.25 135.065 382.466 120.576 368.625 110.673C354.909 100.86 336.234 95.5546 316.228 94.2996L323.665 85.7186C327.683 81.0821 324.596 73.9512 318.396 73.9512C316.536 73.9512 314.372 74.8754 313.125 76.4316L296.101 96.1437C296.1 96.1444 296.1 96.145 296.099 96.1456C294.742 97.654 293.82 99.1046 293.395 100.535C292.968 101.973 293.046 103.379 293.668 104.778C294.907 107.566 297.99 109.409 301.067 109.409H308.238C327.328 109.409 343.858 113.511 355.606 121.281C367.345 129.045 374.317 140.473 374.317 155.171V155.768C374.317 183.682 350.263 202.726 321.982 202.726C295.475 202.726 274.927 191.414 258.535 171.446C257.293 169.894 254.533 168.366 251.768 168.366C247.447 168.366 243.75 172.063 243.75 176.384C243.75 177.474 244.06 178.627 244.478 179.653C244.896 180.68 245.43 181.595 245.891 182.211ZM261.03 16.189H365.354L347.787 36.3908L347.787 36.3907L347.78 36.3987C344.066 41.0411 347.165 47.8598 353.354 47.8598H353.652C355.504 47.8598 357.363 47.2408 358.908 45.6951L358.915 45.6888L358.921 45.682L386.11 14.3101L386.113 14.3064C387.629 12.4869 388.86 10.0419 388.86 7.57317C388.86 3.53646 385.745 0.75 381.738 0.75H261.03C256.404 0.75 253.012 4.45363 253.012 8.7683V8.7779L253.013 8.78747C253.321 12.797 256.712 16.189 261.03 16.189Z" stroke="white" stroke-width="0.5"/>
  </g>
  <defs>
    <filter id="filter0_d_748_33" x="0.5" y="0.947266" width="181" height="225.511" filterUnits="userSpaceOnUse" color-interpolation-filters="sRGB">
      <feFlood flood-opacity="0" result="BackgroundImageFix"/>
      <feColorMatrix in="SourceAlpha" type="matrix" values="0 0 0 0 0 0 0 0 0 0 0 0 0 0 0 0 0 0 127 0" result="hardAlpha"/>
      <feOffset dy="4"/>
      <feGaussianBlur stdDeviation="2"/>
      <feComposite in2="hardAlpha" operator="out"/>
      <feColorMatrix type="matrix" values="0 0 0 0 0.00784314 0 0 0 0 0.298039 0 0 0 0 0.972549 0 0 0 0.2 0"/>
      <feBlend mode="normal" in2="BackgroundImageFix" result="effect1_dropShadow_748_33"/>
      <feBlend mode="normal" in="SourceGraphic" in2="effect1_dropShadow_748_33" result="shape"/>
    </filter>
    <filter id="filter1_d_748_33" x="108.394" y="13.3022" width="200.712" height="203.396" filterUnits="userSpaceOnUse" color-interpolation-filters="sRGB">
      <feFlood flood-opacity="0" result="BackgroundImageFix"/>
      <feColorMatrix in="SourceAlpha" type="matrix" values="0 0 0 0 0 0 0 0 0 0 0 0 0 0 0 0 0 0 127 0" result="hardAlpha"/>
      <feOffset dy="8"/>
      <feGaussianBlur stdDeviation="2"/>
      <feComposite in2="hardAlpha" operator="out"/>
      <feColorMatrix type="matrix" values="0 0 0 0 0.00784314 0 0 0 0 0.298039 0 0 0 0 0.972549 0 0 0 0.2 0"/>
      <feBlend mode="normal" in2="BackgroundImageFix" result="effect1_dropShadow_748_33"/>
      <feBlend mode="normal" in="SourceGraphic" in2="effect1_dropShadow_748_33" result="shape"/>
    </filter>
    <filter id="filter2_d_748_33" x="239.5" y="0.5" width="156" height="225.018" filterUnits="userSpaceOnUse" color-interpolation-filters="sRGB">
      <feFlood flood-opacity="0" result="BackgroundImageFix"/>
      <feColorMatrix in="SourceAlpha" type="matrix" values="0 0 0 0 0 0 0 0 0 0 0 0 0 0 0 0 0 0 127 0" result="hardAlpha"/>
      <feOffset dy="4"/>
      <feGaussianBlur stdDeviation="2"/>
      <feComposite in2="hardAlpha" operator="out"/>
      <feColorMatrix type="matrix" values="0 0 0 0 0.00784314 0 0 0 0 0.298039 0 0 0 0 0.972549 0 0 0 0.2 0"/>
      <feBlend mode="normal" in2="BackgroundImageFix" result="effect1_dropShadow_748_33"/>
      <feBlend mode="normal" in="SourceGraphic" in2="effect1_dropShadow_748_33" result="shape"/>
    </filter>
    <linearGradient id="paint0_linear_748_33" x1="162.453" y1="9.92775" x2="-32.5096" y2="211.41" gradientUnits="userSpaceOnUse">
      <stop stop-color="#6B92FF"/>
      <stop offset="0.802083" stop-color="#9FD8FF"/>
    </linearGradient>
    <linearGradient id="paint1_linear_748_33" x1="203.766" y1="13.4881" x2="232.132" y2="231.898" gradientUnits="userSpaceOnUse">
      <stop stop-color="#6B92FF"/>
      <stop offset="0.802083" stop-color="#9FD8FF"/>
    </linearGradient>
    <linearGradient id="paint2_linear_748_33" x1="378.568" y1="9.46119" x2="185.38" y2="180.479" gradientUnits="userSpaceOnUse">
      <stop stop-color="#6B92FF"/>
      <stop offset="0.802083" stop-color="#9FD8FF"/>
    </linearGradient>
  </defs>
</svg>
