<svg width="418" height="227" viewBox="0 0 418 227" fill="none" xmlns="http://www.w3.org/2000/svg">
    <g filter="url(#filter0_d_608:6)">
        <path d="M169.273 151.433H141.159V10.008C141.159 5.20371 137.569 1.30026 132.784 1C128.896 1 126.503 2.50132 124.709 4.90345L101.379 34.0292C98.3885 37.9326 101.08 43.6377 106.165 43.6377H107.959C109.754 43.6377 111.549 43.0371 112.745 41.5358L125.905 25.0212V151.433H24.5131L81.9385 79.9697C84.9295 76.0663 82.2376 70.3612 77.1531 70.3612H75.0595C73.2649 70.3612 71.4704 71.262 70.274 72.4631L7.46494 150.532C5.3713 153.234 4.77312 155.637 5.07221 157.438C5.3713 161.942 9.25948 165.245 13.7458 165.245H125.905V210.585C125.905 214.789 129.195 218.392 133.382 218.392C137.569 218.692 141.159 215.389 141.159 210.885V165.245H170.17C174.657 165.245 178.844 160.141 176.152 155.036C174.657 152.634 171.965 151.433 169.273 151.433Z"
              fill="url(#paint0_linear_608:6)"/>
        <path d="M169.273 151.183H141.409V10.008C141.409 5.07482 137.72 1.05921 132.8 0.750491L132.792 0.75H132.784C130.807 0.75 129.196 1.13204 127.846 1.82879C126.498 2.52477 125.425 3.52767 124.511 4.75042L101.184 33.8729L101.184 33.8728L101.181 33.8771C98.066 37.9425 100.87 43.8877 106.165 43.8877H107.959C109.807 43.8877 111.684 43.2685 112.94 41.6916L125.655 25.7361V151.183H25.0347L82.1334 80.1263L82.1335 80.1264L82.137 80.1218C85.252 76.0564 82.448 70.1112 77.1531 70.1112H75.0595C73.1865 70.1112 71.331 71.0477 70.0969 72.2867L70.0875 72.2961L70.0792 72.3064L7.27012 150.375L7.26731 150.379C5.15077 153.111 4.51431 155.577 4.82358 157.467C5.13842 162.109 9.14489 165.495 13.7458 165.495H125.655V210.585C125.655 214.91 129.039 218.637 133.373 218.642C137.707 218.948 141.409 215.526 141.409 210.885V165.495H170.17C172.506 165.495 174.749 164.169 176.061 162.193C177.379 160.209 177.765 157.559 176.373 154.919L176.369 154.911L176.364 154.904C174.815 152.415 172.035 151.183 169.273 151.183Z"
              stroke="white" stroke-width="0.5"/>
    </g>
    <g filter="url(#filter1_d_608:6)">
        <path d="M135.534 150.13C122.746 137.376 116.352 130.999 113.956 123.646C111.849 117.178 111.849 110.211 113.956 103.743C116.352 96.3897 122.746 90.0129 135.534 77.2595L172.068 40.8243C184.856 28.0708 191.25 21.6941 198.623 19.3049C205.108 17.2033 212.095 17.2033 218.58 19.3049C225.953 21.6941 232.347 28.0708 245.135 40.8243L281.669 77.2595C294.457 90.0129 300.851 96.3897 303.247 103.743C305.354 110.211 305.354 117.178 303.247 123.646C300.851 130.999 294.457 137.376 281.669 150.13L245.135 186.565C232.347 199.318 225.953 205.695 218.58 208.084C212.095 210.186 205.108 210.186 198.623 208.084C191.25 205.695 184.856 199.318 172.068 186.565L135.534 150.13Z"
              fill="url(#paint1_linear_608:6)"/>
    </g>
    <g filter="url(#filter2_d_608:6)">
        <path d="M405.273 151.433H377.159V10.008C377.159 5.20371 373.569 1.30026 368.784 1C364.896 1 362.503 2.50132 360.709 4.90345L337.379 34.0292C334.389 37.9326 337.08 43.6377 342.165 43.6377H343.959C345.754 43.6377 347.549 43.0371 348.745 41.5358L361.905 25.0212V151.433H260.513L317.939 79.9697C320.929 76.0663 318.238 70.3612 313.153 70.3612H311.059C309.265 70.3612 307.47 71.262 306.274 72.4631L243.465 150.532C241.371 153.234 240.773 155.637 241.072 157.438C241.371 161.942 245.259 165.245 249.746 165.245H361.905V210.585C361.905 214.789 365.195 218.392 369.382 218.392C373.569 218.692 377.159 215.389 377.159 210.885V165.245H406.17C410.657 165.245 414.844 160.141 412.152 155.036C410.657 152.634 407.965 151.433 405.273 151.433Z"
              fill="url(#paint2_linear_608:6)"/>
        <path d="M405.273 151.183H377.409V10.008C377.409 5.07482 373.72 1.05921 368.8 0.750491L368.792 0.75H368.784C366.807 0.75 365.196 1.13204 363.846 1.82879C362.498 2.52477 361.425 3.52767 360.511 4.75042L337.184 33.8729L337.184 33.8728L337.181 33.8771C334.066 37.9425 336.87 43.8877 342.165 43.8877H343.959C345.807 43.8877 347.684 43.2685 348.94 41.6916L361.655 25.7361V151.183H261.035L318.133 80.1263L318.133 80.1264L318.137 80.1218C321.252 76.0564 318.448 70.1112 313.153 70.1112H311.059C309.187 70.1112 307.331 71.0477 306.097 72.2867L306.088 72.2961L306.079 72.3064L243.27 150.375L243.267 150.379C241.151 153.111 240.514 155.577 240.824 157.467C241.138 162.109 245.145 165.495 249.746 165.495H361.655V210.585C361.655 214.91 365.039 218.637 369.373 218.642C373.707 218.948 377.409 215.526 377.409 210.885V165.495H406.17C408.506 165.495 410.749 164.169 412.061 162.193C413.379 160.209 413.765 157.559 412.373 154.919L412.369 154.911L412.364 154.904C410.815 152.415 408.035 151.183 405.273 151.183Z"
              stroke="white" stroke-width="0.5"/>
    </g>
    <defs>
        <filter id="filter0_d_608:6" x="0.5" y="0.5" width="181" height="226.411" filterUnits="userSpaceOnUse"
                color-interpolation-filters="sRGB">
            <feFlood flood-opacity="0" result="BackgroundImageFix"/>
            <feColorMatrix in="SourceAlpha" type="matrix" values="0 0 0 0 0 0 0 0 0 0 0 0 0 0 0 0 0 0 127 0"
                           result="hardAlpha"/>
            <feOffset dy="4"/>
            <feGaussianBlur stdDeviation="2"/>
            <feComposite in2="hardAlpha" operator="out"/>
            <feColorMatrix type="matrix" values="0 0 0 0 0.00784314 0 0 0 0 0.298039 0 0 0 0 0.972549 0 0 0 0.2 0"/>
            <feBlend mode="normal" in2="BackgroundImageFix" result="effect1_dropShadow_608:6"/>
            <feBlend mode="normal" in="SourceGraphic" in2="effect1_dropShadow_608:6" result="shape"/>
        </filter>
        <filter id="filter1_d_608:6" x="108.375" y="17.7288" width="200.452" height="203.932"
                filterUnits="userSpaceOnUse" color-interpolation-filters="sRGB">
            <feFlood flood-opacity="0" result="BackgroundImageFix"/>
            <feColorMatrix in="SourceAlpha" type="matrix" values="0 0 0 0 0 0 0 0 0 0 0 0 0 0 0 0 0 0 127 0"
                           result="hardAlpha"/>
            <feOffset dy="8"/>
            <feGaussianBlur stdDeviation="2"/>
            <feComposite in2="hardAlpha" operator="out"/>
            <feColorMatrix type="matrix" values="0 0 0 0 0.00784314 0 0 0 0 0.298039 0 0 0 0 0.972549 0 0 0 0.2 0"/>
            <feBlend mode="normal" in2="BackgroundImageFix" result="effect1_dropShadow_608:6"/>
            <feBlend mode="normal" in="SourceGraphic" in2="effect1_dropShadow_608:6" result="shape"/>
        </filter>
        <filter id="filter2_d_608:6" x="236.5" y="0.5" width="181" height="226.411" filterUnits="userSpaceOnUse"
                color-interpolation-filters="sRGB">
            <feFlood flood-opacity="0" result="BackgroundImageFix"/>
            <feColorMatrix in="SourceAlpha" type="matrix" values="0 0 0 0 0 0 0 0 0 0 0 0 0 0 0 0 0 0 127 0"
                           result="hardAlpha"/>
            <feOffset dy="4"/>
            <feGaussianBlur stdDeviation="2"/>
            <feComposite in2="hardAlpha" operator="out"/>
            <feColorMatrix type="matrix" values="0 0 0 0 0.00784314 0 0 0 0 0.298039 0 0 0 0 0.972549 0 0 0 0.2 0"/>
            <feBlend mode="normal" in2="BackgroundImageFix" result="effect1_dropShadow_608:6"/>
            <feBlend mode="normal" in="SourceGraphic" in2="effect1_dropShadow_608:6" result="shape"/>
        </filter>
        <linearGradient id="paint0_linear_608:6" x1="162.453" y1="9.51574" x2="-33.3452" y2="211.023"
                        gradientUnits="userSpaceOnUse">
            <stop stop-color="#6B92FF"/>
            <stop offset="0.802083" stop-color="#9FD8FF"/>
        </linearGradient>
        <linearGradient id="paint1_linear_608:6" x1="203.625" y1="17.9151" x2="232.184" y2="236.906"
                        gradientUnits="userSpaceOnUse">
            <stop stop-color="#6B92FF"/>
            <stop offset="0.802083" stop-color="#9FD8FF"/>
        </linearGradient>
        <linearGradient id="paint2_linear_608:6" x1="398.453" y1="9.51574" x2="202.655" y2="211.023"
                        gradientUnits="userSpaceOnUse">
            <stop stop-color="#6B92FF"/>
            <stop offset="0.802083" stop-color="#9FD8FF"/>
        </linearGradient>
    </defs>
</svg>
