<svg width="40" height="40" viewBox="0 0 40 40" fill="none" xmlns="http://www.w3.org/2000/svg">
<path fill-rule="evenodd" clip-rule="evenodd" d="M20 40C31.0457 40 40 31.0457 40 20C40 8.95431 31.0457 0 20 0C8.95431 0 0 8.95431 0 20C0 31.0457 8.95431 40 20 40Z" fill="url(#paint0_linear_417_1392)"/>
<path fill-rule="evenodd" clip-rule="evenodd" d="M21 19H28C28.5523 19 29 19.4477 29 20C29 20.5523 28.5523 21 28 21H21V28C21 28.5523 20.5523 29 20 29C19.4477 29 19 28.5523 19 28V21H12C11.4477 21 11 20.5523 11 20C11 19.4477 11.4477 19 12 19H19V12C19 11.4477 19.4477 11 20 11C20.5523 11 21 11.4477 21 12V19Z" fill="white"/>
<defs>
<linearGradient id="paint0_linear_417_1392" x1="1.17647" y1="3.5" x2="41.8958" y2="32.394" gradientUnits="userSpaceOnUse">
<stop stop-color="#6B92FF"/>
<stop offset="1" stop-color="#9FD8FF"/>
</linearGradient>
</defs>
</svg>
