<svg width="16" height="16" viewBox="0 0 16 16" fill="none" xmlns="http://www.w3.org/2000/svg">
    <path d="M8.00013 0C7.70558 0 7.4668 0.238782 7.4668 0.533334V1.6C7.4668 1.89455 7.70558 2.13333 8.00013 2.13333C8.29468 2.13333 8.53346 1.89455 8.53346 1.6V0.533334C8.53346 0.238782 8.29468 0 8.00013 0Z"
          fill="#FFC542"/>
    <path d="M3.20026 4.26666C3.4088 4.05812 3.4088 3.72001 3.20026 3.51146L2.35546 2.66666C2.14691 2.45812 1.8088 2.45812 1.60026 2.66666C1.39171 2.87521 1.39171 3.21332 1.60026 3.42186L2.44506 4.26666C2.6536 4.47521 2.99171 4.47521 3.20026 4.26666Z"
          fill="#FFC542"/>
    <path d="M12.8 4.26666C13.0085 4.47521 13.3466 4.47521 13.5552 4.26666L14.4 3.42186C14.6085 3.21332 14.6085 2.87521 14.4 2.66666C14.1914 2.45812 13.8533 2.45812 13.6448 2.66666L12.8 3.51146C12.5914 3.72001 12.5914 4.05812 12.8 4.26666Z"
          fill="#FFC542"/>
    <path d="M8.00002 3.19995C6.98321 3.19978 6.00048 3.5665 5.23235 4.23273C4.46421 4.89897 3.96226 5.81999 3.81869 6.82662L3.80802 6.90128C3.72694 7.46207 3.75977 8.03345 3.90456 8.58126C4.04935 9.12907 4.30311 9.64206 4.65069 10.0896C5.05922 10.6176 5.33336 11.1221 5.33336 11.6277V13.3333C5.33336 13.4747 5.38955 13.6104 5.48957 13.7104C5.58958 13.8104 5.72524 13.8666 5.86669 13.8666H10.1334C10.2748 13.8666 10.4105 13.8104 10.5105 13.7104C10.6105 13.6104 10.6667 13.4747 10.6667 13.3333V11.6277C10.6667 11.1221 10.9408 10.6176 11.3494 10.0896C12.0214 9.22128 12.3606 8.08955 12.192 6.90022L12.1814 6.82555C12.0375 5.81912 11.5355 4.89835 10.7674 4.23233C9.99927 3.56631 9.01667 3.19974 8.00002 3.19995Z"
          fill="#FFC542"/>
    <path d="M0 8.00001C0 8.29456 0.238781 8.53334 0.533333 8.53334H1.6C1.89455 8.53334 2.13333 8.29456 2.13333 8.00001C2.13333 7.70546 1.89455 7.46667 1.6 7.46667H0.533333C0.238781 7.46667 0 7.70546 0 8.00001Z"
          fill="#FFC542"/>
    <path d="M13.8667 8.00001C13.8667 8.29456 14.1055 8.53334 14.4 8.53334H15.4667C15.7613 8.53334 16 8.29456 16 8.00001C16 7.70546 15.7613 7.46667 15.4667 7.46667H14.4C14.1055 7.46667 13.8667 7.70546 13.8667 8.00001Z"
          fill="#FFC542"/>
    <path d="M6.3999 15.4667C6.3999 15.7612 6.63868 16 6.93324 16H9.06657C9.36112 16 9.5999 15.7612 9.5999 15.4667C9.5999 15.1721 9.36112 14.9333 9.06657 14.9333H6.93323C6.63868 14.9333 6.3999 15.1721 6.3999 15.4667Z"
          fill="#FFC542"/>
</svg>
