<svg width="16" height="16" viewBox="0 0 16 16" fill="none" xmlns="http://www.w3.org/2000/svg">
<path d="M10.6161 12.7885L10.0252 14.2058C9.91059 14.4806 10.1863 14.7563 10.4611 14.6417L11.8785 14.0509C11.9588 14.0174 12.0318 13.9685 12.0934 13.9069L14.4687 11.5315C14.7291 11.2711 14.7291 10.849 14.4687 10.5887L14.0782 10.1982C13.8179 9.93784 13.3958 9.93785 13.1354 10.1982L10.76 12.5736C10.6985 12.6351 10.6496 12.7081 10.6161 12.7885Z" fill="#031D42"/>
<path fill-rule="evenodd" clip-rule="evenodd" d="M5.83913 3.33325H10.1609C10.6975 3.33324 11.1404 3.33324 11.5012 3.36271C11.8759 3.39333 12.2204 3.45904 12.544 3.6239C13.0457 3.87956 13.4537 4.28751 13.7093 4.78928C13.8742 5.11283 13.9399 5.4573 13.9705 5.83204C14 6.19283 14 6.63573 14 7.17237V7.99992C14 8.36811 13.7015 8.66659 13.3333 8.66659C12.9651 8.66659 12.6667 8.36811 12.6667 7.99992V7.19992C12.6667 6.62887 12.6661 6.24067 12.6416 5.94061C12.6177 5.64833 12.5745 5.49887 12.5213 5.3946C12.3935 5.14372 12.1895 4.93974 11.9386 4.81191C11.8344 4.75878 11.6849 4.7155 11.3926 4.69162C11.0926 4.6671 10.7044 4.66659 10.1333 4.66659H5.86666C5.29561 4.66659 4.90742 4.6671 4.60736 4.69162C4.31508 4.7155 4.16561 4.75878 4.06134 4.81191C3.81046 4.93974 3.60649 5.14372 3.47866 5.3946C3.42553 5.49887 3.38225 5.64833 3.35837 5.94061C3.33385 6.24067 3.33333 6.62887 3.33333 7.19992V10.1333C3.33333 10.7043 3.33385 11.0925 3.35837 11.3926C3.38225 11.6848 3.42553 11.8343 3.47866 11.9386C3.60649 12.1895 3.81046 12.3934 4.06134 12.5213C4.16561 12.5744 4.31508 12.6177 4.60736 12.6416C4.90742 12.6661 5.29561 12.6666 5.86666 12.6666H7.99999C8.36818 12.6666 8.66666 12.9651 8.66666 13.3333C8.66666 13.7014 8.36818 13.9999 7.99999 13.9999H5.83915C5.30249 13.9999 4.85958 13.9999 4.49878 13.9705C4.12405 13.9398 3.77958 13.8741 3.45602 13.7093C2.95426 13.4536 2.54631 13.0457 2.29065 12.5439C2.12579 12.2203 2.06008 11.8759 2.02946 11.5011C1.99998 11.1403 1.99999 10.6974 2 10.1608V7.17239C1.99999 6.63574 1.99998 6.19283 2.02946 5.83204C2.06008 5.4573 2.12579 5.11283 2.29065 4.78928C2.54631 4.28751 2.95426 3.87956 3.45602 3.6239C3.77958 3.45904 4.12405 3.39333 4.49878 3.36271C4.85958 3.33324 5.30248 3.33324 5.83913 3.33325Z" fill="#031D42"/>
<path d="M5.99984 2.66667C5.99984 2.29848 5.70136 2 5.33317 2C4.96498 2 4.6665 2.29848 4.6665 2.66667V4C4.6665 4.36819 4.96498 4.66667 5.33317 4.66667C5.70136 4.66667 5.99984 4.36819 5.99984 4V2.66667Z" fill="#031D42"/>
<path d="M11.3332 2.66667C11.3332 2.29848 11.0347 2 10.6665 2C10.2983 2 9.99983 2.29848 9.99983 2.66667V4C9.99983 4.36819 10.2983 4.66667 10.6665 4.66667C11.0347 4.66667 11.3332 4.36819 11.3332 4V2.66667Z" fill="#031D42"/>
</svg>
