<svg width="16" height="16" viewBox="0 0 16 16" fill="none" xmlns="http://www.w3.org/2000/svg">
<path fill-rule="evenodd" clip-rule="evenodd" d="M2 13.3334C2 12.9652 2.29848 12.6667 2.66667 12.6667H13.3334C13.7015 12.6667 14 12.9652 14 13.3334C14 13.7016 13.7015 14.0001 13.3334 14.0001H2.66667C2.29848 14.0001 2 13.7016 2 13.3334Z" fill="#031D42"/>
<path fill-rule="evenodd" clip-rule="evenodd" d="M10.6665 2C9.56194 2 8.6665 2.89543 8.6665 4V10.6667C8.6665 11.0349 8.96498 11.3333 9.33317 11.3333C9.70136 11.3333 9.99984 11.0349 9.99984 10.6667V4C9.99984 3.63181 10.2983 3.33333 10.6665 3.33333C11.0347 3.33333 11.3332 3.63181 11.3332 4V10.6667C11.3332 11.0349 11.6317 11.3333 11.9998 11.3333C12.368 11.3333 12.6665 11.0349 12.6665 10.6667V4C12.6665 2.89543 11.7711 2 10.6665 2Z" fill="#031D42"/>
<path fill-rule="evenodd" clip-rule="evenodd" d="M5.3335 6C4.22893 6 3.3335 6.89543 3.3335 8V10.6667C3.3335 11.0349 3.63197 11.3333 4.00016 11.3333C4.36835 11.3333 4.66683 11.0349 4.66683 10.6667V8C4.66683 7.63181 4.96531 7.33333 5.3335 7.33333C5.70169 7.33333 6.00017 7.63181 6.00017 8V10.6667C6.00017 11.0349 6.29865 11.3333 6.66684 11.3333C7.03503 11.3333 7.3335 11.0349 7.3335 10.6667V8C7.3335 6.89543 6.43807 6 5.3335 6Z" fill="#031D42"/>
</svg>
