<svg width="16" height="16" viewBox="0 0 16 16" fill="none" xmlns="http://www.w3.org/2000/svg">
<path d="M7.99992 1.3335C4.31802 1.3335 1.33325 4.31826 1.33325 8.00016C1.33325 11.6821 4.31802 14.6668 7.99992 14.6668C11.6818 14.6668 14.6666 11.6821 14.6666 8.00016C14.6666 4.31826 11.6818 1.3335 7.99992 1.3335Z" fill="#FF974A"/>
<path d="M8.66659 5.33317C8.66659 4.96498 8.36811 4.6665 7.99992 4.6665C7.63173 4.6665 7.33325 4.96498 7.33325 5.33317V7.99984C7.33325 8.36803 7.63173 8.6665 7.99992 8.6665C8.36811 8.6665 8.66659 8.36803 8.66659 7.99984V5.33317Z" fill="white"/>
<path d="M7.99992 9.99984C7.63173 9.99984 7.33325 10.2983 7.33325 10.6665C7.33325 11.0347 7.63173 11.3332 7.99992 11.3332C8.36811 11.3332 8.66659 11.0347 8.66659 10.6665C8.66659 10.2983 8.36811 9.99984 7.99992 9.99984Z" fill="white"/>
</svg>
