<svg width="16" height="16" viewBox="0 0 16 16" fill="none" xmlns="http://www.w3.org/2000/svg">
    <path fill-rule="evenodd" clip-rule="evenodd"
          d="M8.00023 3.99996C4.76341 3.99996 3.26012 6.51501 2.73147 7.70224C2.64626 7.89359 2.64626 8.10632 2.73147 8.29767C3.26012 9.4849 4.76341 12 8.00023 12C11.2371 12 12.7403 9.4848 13.2688 8.29762C13.354 8.1063 13.354 7.89362 13.2688 7.7023C12.7403 6.51512 11.2371 3.99996 8.00023 3.99996ZM1.51343 7.15987C2.09298 5.85834 3.92773 2.66663 8.00023 2.66663C12.0728 2.66663 13.9074 5.85851 14.4869 7.16C14.7257 7.69652 14.7257 8.3034 14.4869 8.83992C13.9074 10.1414 12.0728 13.3333 8.00023 13.3333C3.92773 13.3333 2.09298 10.1416 1.51343 8.84004C1.2745 8.30346 1.27449 7.69646 1.51343 7.15987Z"/>
    <path fill-rule="evenodd" clip-rule="evenodd"
          d="M7.99992 5.33337C6.52716 5.33337 5.33325 6.52728 5.33325 8.00004C5.33325 9.4728 6.52716 10.6667 7.99992 10.6667C9.47268 10.6667 10.6666 9.4728 10.6666 8.00004C10.6666 6.52728 9.47268 5.33337 7.99992 5.33337ZM7.94343 6.66788C7.96216 6.6671 7.98099 6.66671 7.99992 6.66671C8.7363 6.66671 9.33325 7.26366 9.33325 8.00004C9.33325 8.73642 8.7363 9.33337 7.99992 9.33337C7.26354 9.33337 6.66659 8.73642 6.66659 8.00004C6.66659 7.98112 6.66698 7.96228 6.66776 7.94355C6.77169 7.98014 6.88348 8.00004 6.99992 8.00004C7.5522 8.00004 7.99992 7.55233 7.99992 7.00004C7.99992 6.8836 7.98002 6.77181 7.94343 6.66788Z"/>
</svg>
