<svg width="16" height="16" viewBox="0 0 16 16" fill="none" xmlns="http://www.w3.org/2000/svg">
<path fill-rule="evenodd" clip-rule="evenodd" d="M8.66675 2.66663H6.53342C5.96236 2.66663 5.57417 2.66715 5.27411 2.69166C4.98183 2.71554 4.83236 2.75883 4.72809 2.81195C4.47721 2.93978 4.27324 3.14376 4.14541 3.39464C4.09228 3.49891 4.049 3.64838 4.02512 3.94065C4.0006 4.24071 4.00008 4.62891 4.00008 5.19996V10.8C4.00008 11.371 4.0006 11.7592 4.02512 12.0593C4.049 12.3515 4.09228 12.501 4.14541 12.6053C4.27324 12.8562 4.47721 13.0601 4.72809 13.188C4.83236 13.2411 4.98183 13.2844 5.27411 13.3083C5.57417 13.3328 5.96236 13.3333 6.53342 13.3333H8.66675C9.03494 13.3333 9.33342 13.6318 9.33342 14C9.33342 14.3681 9.03494 14.6666 8.66675 14.6666H6.50587C5.96923 14.6666 5.52632 14.6666 5.16553 14.6372C4.7908 14.6065 4.44633 14.5408 4.12277 14.376C3.62101 14.1203 3.21306 13.7124 2.9574 13.2106C2.79254 12.887 2.72683 12.5426 2.69621 12.1678C2.66673 11.807 2.66674 11.3641 2.66675 10.8275V5.17243C2.66674 4.63579 2.66673 4.19287 2.69621 3.83208C2.72683 3.45735 2.79254 3.11288 2.9574 2.78932C3.21306 2.28755 3.62101 1.87961 4.12277 1.62394C4.44633 1.45908 4.7908 1.39337 5.16553 1.36276C5.52633 1.33328 5.96924 1.33329 6.50588 1.33329L8.74252 1.33327C9.16585 1.33307 9.48571 1.33292 9.79418 1.40697C10.0663 1.4723 10.3264 1.58004 10.565 1.72625C10.8355 1.892 11.0615 2.11829 11.3607 2.41777L12.2489 3.30598C12.5484 3.60517 12.7747 3.83124 12.9405 4.10172C13.0867 4.34032 13.1944 4.60044 13.2597 4.87253C13.3338 5.18099 13.3336 5.50085 13.3334 5.92417L13.3334 7.99996C13.3334 8.36815 13.0349 8.66663 12.6667 8.66663C12.2986 8.66663 12.0001 8.36815 12.0001 7.99996V5.99996H10.6667C9.56218 5.99996 8.66675 5.10453 8.66675 3.99996V2.66663ZM11.7067 4.66663C11.6266 4.57189 11.4987 4.44136 11.2581 4.20077L10.4659 3.40862C10.2253 3.16804 10.0948 3.04009 10.0001 2.95998V3.99996C10.0001 4.36815 10.2986 4.66663 10.6667 4.66663H11.7067Z" fill="#031D42"/>
<path fill-rule="evenodd" clip-rule="evenodd" d="M12 11.3333C11.6318 11.3333 11.3333 11.6318 11.3333 12C11.3333 12.3682 11.6318 12.6667 12 12.6667C12.3682 12.6667 12.6667 12.3682 12.6667 12C12.6667 11.6318 12.3682 11.3333 12 11.3333ZM10 12C10 10.8954 10.8954 10 12 10C13.1046 10 14 10.8954 14 12C14 12.3088 13.93 12.6012 13.8051 12.8623L14.4714 13.5286C14.7318 13.7889 14.7318 14.2111 14.4714 14.4714C14.2111 14.7318 13.7889 14.7318 13.5286 14.4714L12.8623 13.8051C12.6012 13.93 12.3088 14 12 14C10.8954 14 10 13.1046 10 12Z" fill="#031D42"/>
</svg>
