<svg width="24" height="24" viewBox="0 0 24 24" fill="none" xmlns="http://www.w3.org/2000/svg">
<path fill-rule="evenodd" clip-rule="evenodd" d="M14.6911 2.11058C14.2284 1.9995 13.7487 1.99973 13.1137 2.00003L9.7587 2.00006C8.95373 2.00005 8.28937 2.00004 7.74818 2.04426C7.18608 2.09018 6.66937 2.18875 6.18404 2.43604C5.43139 2.81953 4.81947 3.43145 4.43598 4.1841C4.18868 4.66944 4.09012 5.18614 4.04419 5.74824C3.99998 6.28943 3.99999 6.95378 4 7.75875V16.2414C3.99999 17.0463 3.99998 17.7107 4.04419 18.2519C4.09012 18.814 4.18868 19.3307 4.43598 19.816C4.81947 20.5687 5.43139 21.1806 6.18404 21.5641C6.66937 21.8114 7.18608 21.9099 7.74818 21.9559C8.28937 22.0001 8.95372 22.0001 9.75868 22.0001H14.2413C15.0463 22.0001 15.7106 22.0001 16.2518 21.9559C16.8139 21.9099 17.3306 21.8114 17.816 21.5641C18.5686 21.1806 19.1805 20.5687 19.564 19.816C19.8113 19.3307 19.9099 18.814 19.9558 18.2519C20 17.7107 20 17.0463 20 16.2414L20 8.8864C20.0003 8.25142 20.0006 7.77161 19.8895 7.30892C19.7915 6.90078 19.6299 6.5106 19.4106 6.15271C19.1619 5.74699 18.8225 5.40789 18.3733 4.95909L17.041 3.62678C16.5922 3.17756 16.2531 2.83813 15.8474 2.5895C15.4895 2.37019 15.0993 2.20857 14.6911 2.11058ZM13 4.00006H9.8C8.94342 4.00006 8.36113 4.00084 7.91104 4.03761C7.47262 4.07343 7.24842 4.13836 7.09202 4.21805C6.7157 4.4098 6.40973 4.71576 6.21799 5.09208C6.1383 5.24848 6.07337 5.47269 6.03755 5.9111C6.00078 6.36119 6 6.94348 6 7.80006V16.2001C6 17.0566 6.00078 17.6389 6.03755 18.089C6.07337 18.5274 6.1383 18.7516 6.21799 18.908C6.40973 19.2844 6.7157 19.5903 7.09202 19.7821C7.24842 19.8618 7.47262 19.9267 7.91104 19.9625C8.36113 19.9993 8.94342 20.0001 9.8 20.0001H14.2C15.0566 20.0001 15.6389 19.9993 16.089 19.9625C16.5274 19.9267 16.7516 19.8618 16.908 19.7821C17.2843 19.5903 17.5903 19.2844 17.782 18.908C17.8617 18.7516 17.9266 18.5274 17.9624 18.089C17.9992 17.6389 18 17.0566 18 16.2001V9.00006H16C14.3431 9.00006 13 7.65692 13 6.00006V4.00006ZM17.56 7.00006C17.4398 6.85796 17.2479 6.66216 16.887 6.30128L15.6988 5.11306C15.3379 4.75218 15.1421 4.56026 15 4.44009V6.00006C15 6.55235 15.4477 7.00006 16 7.00006H17.56Z" fill="#6B92FF"/>
<path d="M13.6773 11.1766H14.4628C14.7594 11.1766 15 10.9131 15 10.5883C15 10.2633 14.7594 10 14.4628 10H13.6773C12.2419 10 10.9974 10.9108 10.4 12.2319H9.53719C9.24062 12.2319 9 12.4953 9 12.8202C9 13.1452 9.24062 13.4085 9.53719 13.4085H10.063C10.0367 13.6015 10.023 13.799 10.023 14C10.023 14.154 10.0313 14.3058 10.0468 14.4553H9.53719C9.24062 14.4553 9 14.7187 9 15.0436C9 15.3685 9.24062 15.6319 9.53719 15.6319H10.3413C10.9128 17.0263 12.1931 18 13.6773 18H14.4628C14.7594 18 15 17.7365 15 17.4117C15 17.0868 14.7594 16.8234 14.4628 16.8234H13.6773C12.8101 16.8234 12.042 16.3522 11.574 15.6319H13.5436C13.8403 15.6319 14.0808 15.3685 14.0808 15.0436C14.0808 14.7187 13.8403 14.4553 13.5436 14.4553H11.1314C11.1093 14.307 11.0974 14.155 11.0974 14C11.0974 13.7972 11.1176 13.5994 11.1548 13.4085H13.5437C13.8403 13.4085 14.0809 13.1452 14.0809 12.8202C14.0809 12.4953 13.8403 12.2319 13.5437 12.2319H11.668C12.1412 11.589 12.8659 11.1766 13.6773 11.1766Z" fill="#6B92FF"/>
</svg>
