<svg width="12" height="14" viewBox="0 0 12 14" fill="none" xmlns="http://www.w3.org/2000/svg">
    <path fill-rule="evenodd" clip-rule="evenodd" d="M0.666504 3.53337C0.666504 2.41327 0.666504 1.85322 0.884491 1.42539C1.07624 1.04907 1.3822 0.743108 1.75852 0.551361C2.18635 0.333374 2.7464 0.333374 3.8665 0.333374H6.13317C6.31985 0.333374 6.4132 0.333374 6.4845 0.369705C6.54722 0.401663 6.59821 0.452656 6.63017 0.515377C6.6665 0.586681 6.6665 0.680023 6.6665 0.866707V2.33337C6.6665 3.80613 7.86041 5.00004 9.33317 5.00004H10.7998C10.9865 5.00004 11.0799 5.00004 11.1512 5.03637C11.2139 5.06833 11.2649 5.11932 11.2968 5.18204C11.3332 5.25335 11.3332 5.34669 11.3332 5.53337V10.4667C11.3332 11.5868 11.3332 12.1469 11.1152 12.5747C10.9234 12.951 10.6175 13.257 10.2412 13.4487C9.81333 13.6667 9.25327 13.6667 8.13317 13.6667H3.8665C2.7464 13.6667 2.18635 13.6667 1.75852 13.4487C1.3822 13.257 1.07624 12.951 0.884491 12.5747C0.666504 12.1469 0.666504 11.5868 0.666504 10.4667V3.53337Z" fill="white"/>
</svg>
