<svg width="16" height="16" viewBox="0 0 16 16" fill="none" xmlns="http://www.w3.org/2000/svg">
<path d="M13.3334 10.6667C13.3334 10.2985 13.0349 10 12.6667 10C12.2986 10 12.0001 10.2985 12.0001 10.6667V13.0572L11.8048 12.8619C11.5445 12.6016 11.1224 12.6016 10.862 12.8619C10.6017 13.1223 10.6017 13.5444 10.862 13.8047L12.1953 15.1381C12.4557 15.3984 12.8778 15.3984 13.1382 15.1381L14.4715 13.8047C14.7318 13.5444 14.7318 13.1223 14.4715 12.8619C14.2111 12.6016 13.789 12.6016 13.5287 12.8619L13.3334 13.0572V10.6667Z" fill="#031D42"/>
<path fill-rule="evenodd" clip-rule="evenodd" d="M6.81609 4.03672C6.68048 4.00416 6.52868 3.99988 6.00777 3.99988H5.19992C4.62887 3.99988 4.24067 4.0004 3.94061 4.02491C3.64833 4.04879 3.49887 4.09208 3.3946 4.1452C3.14372 4.27303 2.93974 4.47701 2.81191 4.72789C2.75878 4.83216 2.7155 4.98163 2.69162 5.2739C2.6671 5.57396 2.66659 5.96216 2.66659 6.53321V9.46655C2.66659 10.0376 2.6671 10.4258 2.69162 10.7259C2.7155 11.0181 2.75878 11.1676 2.81191 11.2719C2.93974 11.5227 3.14372 11.7267 3.3946 11.8546C3.49887 11.9077 3.64833 11.951 3.94061 11.9748C4.24067 11.9994 4.62887 11.9999 5.19992 11.9999H8.66659C9.03478 11.9999 9.33325 12.2984 9.33325 12.6665C9.33325 13.0347 9.03478 13.3332 8.66659 13.3332H5.1724C4.63575 13.3332 4.19284 13.3332 3.83204 13.3038C3.4573 13.2731 3.11283 13.2074 2.78928 13.0426C2.28751 12.7869 1.87956 12.379 1.6239 11.8772C1.45904 11.5536 1.39333 11.2092 1.36271 10.8344C1.33324 10.4736 1.33324 10.0307 1.33325 9.49408V6.50568C1.33324 5.96903 1.33324 5.52613 1.36271 5.16533C1.39333 4.7906 1.45904 4.44613 1.6239 4.12257C1.87956 3.62081 2.28751 3.21286 2.78928 2.9572C3.11283 2.79233 3.4573 2.72663 3.83204 2.69601C4.19283 2.66653 4.63574 2.66654 5.17239 2.66655L6.00777 2.66655C6.03071 2.66655 6.05334 2.66654 6.07569 2.66652C6.49902 2.66632 6.81888 2.66617 7.12735 2.74023C7.39944 2.80555 7.65956 2.9133 7.89816 3.05951C8.16864 3.22526 8.39471 3.45154 8.6939 3.75102C8.7097 3.76683 8.7257 3.78285 8.74192 3.79907L8.94273 3.99988L10.8275 3.99988C11.3641 3.99987 11.807 3.99986 12.1678 4.02934C12.5425 4.05996 12.887 4.12567 13.2106 4.29053C13.7123 4.54619 14.1203 4.95414 14.3759 5.4559C14.5408 5.77946 14.6065 6.12393 14.6371 6.49866C14.6666 6.85945 14.6666 7.30236 14.6666 7.839V7.99988C14.6666 8.36807 14.3681 8.66655 13.9999 8.66655C13.6317 8.66655 13.3333 8.36807 13.3333 7.99988V7.86655C13.3333 7.29549 13.3327 6.9073 13.3082 6.60724C13.2843 6.31496 13.2411 6.16549 13.1879 6.06122C13.0601 5.81034 12.8561 5.60637 12.6052 5.47854C12.501 5.42541 12.3515 5.38213 12.0592 5.35825C11.7592 5.33373 11.371 5.33321 10.7999 5.33321H8.66659C8.48977 5.33321 8.32021 5.26297 8.19518 5.13795L7.79911 4.74188C7.43077 4.37353 7.3204 4.26923 7.20149 4.19636C7.08219 4.12325 6.95213 4.06938 6.81609 4.03672Z" fill="#031D42"/>
</svg>
