<svg width="16" height="16" viewBox="0 0 16 16" fill="none" xmlns="http://www.w3.org/2000/svg">
<path fill-rule="evenodd" clip-rule="evenodd" d="M11.3547 2H11.312C11.0196 1.99999 10.7672 1.99999 10.5584 2.01423C10.3385 2.02924 10.1186 2.06224 9.9013 2.15224C9.41124 2.35523 9.0219 2.74458 8.81891 3.23463C8.72891 3.45192 8.6959 3.67186 8.6809 3.89175C8.66665 4.10058 8.66666 4.35289 8.66667 4.64531V6.02132C8.66666 6.31374 8.66665 6.56609 8.6809 6.77492C8.6959 6.99481 8.72891 7.21475 8.81891 7.43203C9.0219 7.92209 9.41124 8.31144 9.9013 8.51443C10.1186 8.60443 10.3385 8.63743 10.5584 8.65243C10.7672 8.66668 11.0196 8.66668 11.312 8.66667H11.3547C11.6471 8.66668 11.8994 8.66668 12.1083 8.65243C12.3281 8.63743 12.5481 8.60443 12.7654 8.51443C13.2554 8.31144 13.6448 7.92209 13.8478 7.43203C13.9378 7.21475 13.9708 6.99481 13.9858 6.77492C14 6.56608 14 6.31376 14 6.02133V4.64534C14 4.35291 14 4.10058 13.9858 3.89175C13.9708 3.67186 13.9378 3.45192 13.8478 3.23463C13.6448 2.74458 13.2554 2.35523 12.7654 2.15224C12.5481 2.06224 12.3281 2.02924 12.1083 2.01423C11.8994 1.99999 11.6471 1.99999 11.3547 2ZM10.4115 3.38408C10.4393 3.37259 10.4972 3.35485 10.6492 3.34447C10.8072 3.3337 11.0136 3.33333 11.3333 3.33333C11.6531 3.33333 11.8595 3.3337 12.0175 3.34447C12.1695 3.35485 12.2274 3.37259 12.2551 3.38408C12.4185 3.45174 12.5483 3.58153 12.6159 3.74488C12.6274 3.77262 12.6452 3.83051 12.6555 3.98251C12.6663 4.14049 12.6667 4.34692 12.6667 4.66667V6C12.6667 6.31975 12.6663 6.52617 12.6555 6.68416C12.6452 6.83616 12.6274 6.89405 12.6159 6.92179C12.5483 7.08514 12.4185 7.21492 12.2551 7.28259C12.2274 7.29408 12.1695 7.31182 12.0175 7.32219C11.8595 7.33297 11.6531 7.33333 11.3333 7.33333C11.0136 7.33333 10.8072 7.33297 10.6492 7.32219C10.4972 7.31182 10.4393 7.29408 10.4115 7.28259C10.2482 7.21492 10.1184 7.08514 10.0507 6.92179C10.0393 6.89405 10.0215 6.83616 10.0111 6.68416C10.0004 6.52617 10 6.31975 10 6V4.66667C10 4.34692 10.0004 4.14049 10.0111 3.98251C10.0215 3.83051 10.0393 3.77262 10.0507 3.74488C10.1184 3.58153 10.2482 3.45174 10.4115 3.38408Z" fill="#031D42"/>
<path fill-rule="evenodd" clip-rule="evenodd" d="M4.68799 7.33333H4.64535C4.35291 7.33333 4.10059 7.33332 3.89175 7.34757C3.67186 7.36257 3.45192 7.39557 3.23463 7.48558C2.74458 7.68856 2.35523 8.07791 2.15224 8.56797C2.06224 8.78525 2.02924 9.00519 2.01423 9.22508C1.99999 9.43391 1.99999 9.68622 2 9.97864V11.3547C1.99999 11.6471 1.99999 11.8994 2.01423 12.1083C2.02924 12.3281 2.06224 12.5481 2.15224 12.7654C2.35523 13.2554 2.74458 13.6448 3.23463 13.8478C3.45192 13.9378 3.67186 13.9708 3.89175 13.9858C4.10058 14 4.35291 14 4.64534 14H4.68799C4.98043 14 5.23275 14 5.44159 13.9858C5.66148 13.9708 5.88142 13.9378 6.0987 13.8478C6.58876 13.6448 6.97811 13.2554 7.18109 12.7654C7.2711 12.5481 7.3041 12.3281 7.3191 12.1083C7.33335 11.8994 7.33334 11.6471 7.33333 11.3547V9.97867C7.33334 9.68625 7.33335 9.43391 7.3191 9.22508C7.3041 9.00519 7.2711 8.78525 7.18109 8.56797C6.97811 8.07791 6.58876 7.68856 6.0987 7.48558C5.88142 7.39557 5.66148 7.36257 5.44159 7.34757C5.23275 7.33332 4.98042 7.33333 4.68799 7.33333ZM3.74488 8.71741C3.77262 8.70592 3.83051 8.68818 3.98251 8.67781C4.14049 8.66703 4.34692 8.66667 4.66667 8.66667C4.98642 8.66667 5.19284 8.66703 5.35083 8.67781C5.50283 8.68818 5.56071 8.70592 5.58846 8.71741C5.75181 8.78508 5.88159 8.91486 5.94925 9.07821C5.96075 9.10595 5.97849 9.16384 5.98886 9.31584C5.99964 9.47383 6 9.68025 6 10V11.3333C6 11.6531 5.99964 11.8595 5.98886 12.0175C5.97849 12.1695 5.96075 12.2274 5.94925 12.2551C5.88159 12.4185 5.75181 12.5483 5.58846 12.6159C5.56071 12.6274 5.50283 12.6452 5.35083 12.6555C5.19284 12.6663 4.98642 12.6667 4.66667 12.6667C4.34692 12.6667 4.14049 12.6663 3.98251 12.6555C3.83051 12.6452 3.77262 12.6274 3.74488 12.6159C3.58153 12.5483 3.45174 12.4185 3.38408 12.2551C3.37259 12.2274 3.35485 12.1695 3.34447 12.0175C3.3337 11.8595 3.33333 11.6531 3.33333 11.3333V10C3.33333 9.68025 3.3337 9.47383 3.34447 9.31584C3.35485 9.16384 3.37259 9.10595 3.38408 9.07821C3.45174 8.91486 3.58153 8.78508 3.74488 8.71741Z" fill="#031D42"/>
<path fill-rule="evenodd" clip-rule="evenodd" d="M4 2C2.89543 2 2 2.89543 2 4C2 5.10457 2.89543 6 4 6H5.33333C6.4379 6 7.33333 5.10457 7.33333 4C7.33333 2.89543 6.4379 2 5.33333 2H4ZM3.33333 4C3.33333 3.63181 3.63181 3.33333 4 3.33333H5.33333C5.70152 3.33333 6 3.63181 6 4C6 4.36819 5.70152 4.66667 5.33333 4.66667H4C3.63181 4.66667 3.33333 4.36819 3.33333 4Z" fill="#031D42"/>
<path fill-rule="evenodd" clip-rule="evenodd" d="M10.6667 10C9.5621 10 8.66667 10.8954 8.66667 12C8.66667 13.1046 9.5621 14 10.6667 14H12C13.1046 14 14 13.1046 14 12C14 10.8954 13.1046 10 12 10H10.6667ZM10 12C10 11.6318 10.2985 11.3333 10.6667 11.3333H12C12.3682 11.3333 12.6667 11.6318 12.6667 12C12.6667 12.3682 12.3682 12.6667 12 12.6667H10.6667C10.2985 12.6667 10 12.3682 10 12Z" fill="#031D42"/>
</svg>
