<svg width="16" height="16" viewBox="0 0 16 16" fill="none" xmlns="http://www.w3.org/2000/svg">
<path fill-rule="evenodd" clip-rule="evenodd" d="M4.00004 4C4.36823 4 4.66671 4.29848 4.66671 4.66667V10.1333C4.66671 10.7044 4.66723 11.0926 4.69174 11.3926C4.71562 11.6849 4.75891 11.8344 4.81203 11.9387C4.93986 12.1895 5.14384 12.3935 5.39472 12.5213C5.49899 12.5745 5.64846 12.6178 5.94073 12.6416C6.24079 12.6661 6.62899 12.6667 7.20004 12.6667H8.80004C9.37109 12.6667 9.75929 12.6661 10.0594 12.6416C10.3516 12.6178 10.5011 12.5745 10.6054 12.5213C10.8562 12.3935 11.0602 12.1895 11.1881 11.9387C11.2412 11.8344 11.2845 11.6849 11.3083 11.3926C11.3329 11.0926 11.3334 10.7044 11.3334 10.1333V4.66667C11.3334 4.29848 11.6319 4 12 4C12.3682 4 12.6667 4.29848 12.6667 4.66667V10.1609C12.6667 10.6975 12.6667 11.1404 12.6372 11.5012C12.6066 11.8759 12.5409 12.2204 12.3761 12.544C12.1204 13.0457 11.7124 13.4537 11.2107 13.7094C10.8871 13.8742 10.5427 13.9399 10.1679 13.9705C9.80713 14 9.36421 14 8.82756 14H7.17252C6.63587 14 6.19296 14 5.83216 13.9705C5.45743 13.9399 5.11296 13.8742 4.7894 13.7094C4.28763 13.4537 3.87969 13.0457 3.62402 12.544C3.45916 12.2204 3.39345 11.8759 3.36284 11.5012C3.33336 11.1404 3.33337 10.6975 3.33337 10.1609L3.33337 4.66667C3.33337 4.29848 3.63185 4 4.00004 4Z" fill="#031D42"/>
<path fill-rule="evenodd" clip-rule="evenodd" d="M8 10.0001C7.63181 10.0001 7.33333 10.2986 7.33333 10.6667V12.6667H6V10.6667C6 9.56218 6.89543 8.66675 8 8.66675C9.10457 8.66675 10 9.56218 10 10.6667V12.6667H8.66667V10.6667C8.66667 10.2986 8.36819 10.0001 8 10.0001Z" fill="#031D42"/>
<path fill-rule="evenodd" clip-rule="evenodd" d="M2.07041 5.63157C2.23507 5.96089 2.63551 6.09438 2.96483 5.92972L8.00002 3.41212L13.0352 5.92972C13.3645 6.09438 13.765 5.96089 13.9296 5.63157C14.0943 5.30225 13.9608 4.90181 13.6315 4.73715L8.29817 2.07048C8.11048 1.97664 7.88957 1.97664 7.70188 2.07048L2.36855 4.73715C2.03923 4.90181 1.90575 5.30225 2.07041 5.63157Z" fill="#031D42"/>
</svg>
