<svg width="24" height="24" viewBox="0 0 24 24" fill="none" xmlns="http://www.w3.org/2000/svg">
<path d="M24 12C24 18.6274 18.6274 24 12 24C5.37258 24 0 18.6274 0 12C0 5.37258 5.37258 0 12 0C18.6274 0 24 5.37258 24 12ZM2.4 12C2.4 17.3019 6.69807 21.6 12 21.6C17.3019 21.6 21.6 17.3019 21.6 12C21.6 6.69807 17.3019 2.4 12 2.4C6.69807 2.4 2.4 6.69807 2.4 12Z" fill="#EFF0F6"/>
<g filter="url(#filter0_d_709_3574)">
<path d="M24 12C24 13.8937 23.5518 15.7606 22.6921 17.4479C21.8323 19.1352 20.5855 20.5951 19.0534 21.7082C17.5214 22.8213 15.7476 23.556 13.8772 23.8523C12.0068 24.1485 10.0928 23.9979 8.2918 23.4127L9.03344 21.1301C10.4743 21.5983 12.0054 21.7188 13.5018 21.4818C14.9981 21.2448 16.4171 20.657 17.6427 19.7666C18.8684 18.8761 19.8659 17.7082 20.5537 16.3583C21.2414 15.0085 21.6 13.515 21.6 12H24Z" fill="url(#paint0_linear_709_3574)"/>
</g>
<defs>
<filter id="filter0_d_709_3574" x="6.29181" y="11" width="19.7082" height="16" filterUnits="userSpaceOnUse" color-interpolation-filters="sRGB">
<feFlood flood-opacity="0" result="BackgroundImageFix"/>
<feColorMatrix in="SourceAlpha" type="matrix" values="0 0 0 0 0 0 0 0 0 0 0 0 0 0 0 0 0 0 127 0" result="hardAlpha"/>
<feOffset dy="1"/>
<feGaussianBlur stdDeviation="1"/>
<feComposite in2="hardAlpha" operator="out"/>
<feColorMatrix type="matrix" values="0 0 0 0 0.00784314 0 0 0 0 0.298039 0 0 0 0 0.972549 0 0 0 0.2 0"/>
<feBlend mode="normal" in2="BackgroundImageFix" result="effect1_dropShadow_709_3574"/>
<feBlend mode="normal" in="SourceGraphic" in2="effect1_dropShadow_709_3574" result="shape"/>
</filter>
<linearGradient id="paint0_linear_709_3574" x1="0.705882" y1="2.1" x2="25.1375" y2="19.4364" gradientUnits="userSpaceOnUse">
<stop stop-color="#6B92FF"/>
<stop offset="1" stop-color="#9FD8FF"/>
</linearGradient>
</defs>
</svg>
