<svg width="16" height="16" viewBox="0 0 16 16" fill="none" xmlns="http://www.w3.org/2000/svg">
    <path fill-rule="evenodd" clip-rule="evenodd" d="M5.44081 6H10.5589C10.9103 5.99999 11.2135 5.99998 11.4632 6.02038C11.7268 6.04192 11.9889 6.08946 12.2412 6.21799C12.6175 6.40974 12.9234 6.7157 13.1152 7.09202C13.2437 7.34427 13.2913 7.60642 13.3128 7.86998C13.3332 8.11968 13.3332 8.42291 13.3332 8.77431V11.8924C13.3332 12.2438 13.3332 12.547 13.3128 12.7967C13.2913 13.0603 13.2437 13.3224 13.1152 13.5747C12.9234 13.951 12.6175 14.2569 12.2412 14.4487C11.9889 14.5772 11.7268 14.6248 11.4632 14.6463C11.2135 14.6667 10.9103 14.6667 10.5589 14.6667H5.4408C5.08937 14.6667 4.7862 14.6667 4.53649 14.6463C4.27292 14.6248 4.01078 14.5772 3.75852 14.4487C3.3822 14.2569 3.07624 13.951 2.88449 13.5747C2.75596 13.3224 2.70842 13.0603 2.68689 12.7967C2.66648 12.547 2.66649 12.2438 2.6665 11.8924V8.77428C2.66649 8.42287 2.66648 8.11969 2.68689 7.86998C2.70842 7.60642 2.75596 7.34427 2.88449 7.09202C3.07624 6.7157 3.3822 6.40974 3.75852 6.21799C4.01078 6.08946 4.27292 6.04192 4.53649 6.02038C4.78619 5.99998 5.0894 5.99999 5.44081 6ZM7.99984 10C7.63165 10 7.33317 10.2985 7.33317 10.6667V11.3333C7.33317 11.7015 7.63165 12 7.99984 12C8.36803 12 8.6665 11.7015 8.6665 11.3333V10.6667C8.6665 10.2985 8.36803 10 7.99984 10Z" fill="#6B92FF"/>
    <path fill-rule="evenodd" clip-rule="evenodd" d="M5.3335 4C5.3335 2.52724 6.5274 1.33334 8.00016 1.33334C9.47292 1.33334 10.6668 2.52724 10.6668 4V6H9.3335V4C9.3335 3.26362 8.73654 2.66667 8.00016 2.66667C7.26378 2.66667 6.66683 3.26362 6.66683 4V6H5.3335V4Z" fill="#6B92FF"/>
</svg>
