<svg width="17" height="16" viewBox="0 0 17 16" fill="none" xmlns="http://www.w3.org/2000/svg">
<path fill-rule="evenodd" clip-rule="evenodd" d="M9.16675 13.3333C9.16675 12.9651 8.86827 12.6667 8.50008 12.6667L6.36675 12.6667C5.79569 12.6667 5.4075 12.6661 5.10744 12.6416C4.81516 12.6178 4.66569 12.5745 4.56143 12.5213C4.31054 12.3935 4.10657 12.1895 3.97874 11.9387C3.92561 11.8344 3.88233 11.6849 3.85845 11.3926C3.83393 11.0926 3.83342 10.7044 3.83341 10.1333L3.83342 5.86667C3.83342 5.29561 3.83393 4.90742 3.85845 4.60736C3.88233 4.31508 3.92561 4.16561 3.97874 4.06135C4.10657 3.81046 4.31054 3.60649 4.56143 3.47866C4.66569 3.42553 4.81516 3.38225 5.10744 3.35837C5.4075 3.33385 5.7957 3.33333 6.36675 3.33333L8.50008 3.33333C8.86827 3.33333 9.16675 3.03486 9.16675 2.66667C9.16675 2.29848 8.86827 2 8.50008 2L6.3392 2C5.80256 1.99999 5.35966 1.99999 4.99886 2.02946C4.62413 2.06008 4.27966 2.12579 3.95611 2.29065C3.45434 2.54631 3.04639 2.95426 2.79073 3.45603C2.62587 3.77958 2.56016 4.12405 2.52954 4.49878C2.50007 4.85958 2.50007 5.3025 2.50008 5.83915V10.1609C2.50007 10.6975 2.50007 11.1404 2.52954 11.5012C2.56016 11.8759 2.62587 12.2204 2.79073 12.544C3.04639 13.0457 3.45434 13.4537 3.95611 13.7094C4.27966 13.8742 4.62413 13.9399 4.99886 13.9705C5.35966 14 5.80257 14 6.33921 14H8.50008C8.86827 14 9.16675 13.7015 9.16675 13.3333Z" fill="#6B92FF"/>
<path d="M6.49992 8.66668C6.13173 8.66668 5.83325 8.3682 5.83325 8.00001C5.83325 7.63182 6.13173 7.33334 6.49992 7.33334H12.2238L11.3618 6.47141C11.1015 6.21107 11.1015 5.78895 11.3618 5.52861C11.6222 5.26826 12.0443 5.26826 12.3047 5.52861L14.3047 7.52861C14.565 7.78896 14.565 8.21107 14.3047 8.47141L12.3047 10.4714C12.0443 10.7318 11.6222 10.7318 11.3618 10.4714C11.1015 10.2111 11.1015 9.78896 11.3618 9.52861L12.2238 8.66668H6.49992Z" fill="#6B92FF"/>
</svg>
