<svg width="24" height="24" viewBox="0 0 16 16" fill="none" xmlns="http://www.w3.org/2000/svg">
<path fill-rule="evenodd" clip-rule="evenodd" d="M12.6664 14.6667C13.9186 14.6667 14.8509 13.5379 15.2373 12.9764C15.3667 12.7883 15.3667 12.5452 15.2373 12.3571C14.8509 11.7956 13.9186 10.6667 12.6664 10.6667C11.4143 10.6667 10.4819 11.7956 10.0956 12.3571C9.96618 12.5452 9.96618 12.7883 10.0956 12.9764C10.4819 13.5379 11.4143 14.6667 12.6664 14.6667ZM12.6666 13.3334C13.0348 13.3334 13.3332 13.0349 13.3332 12.6667C13.3332 12.2986 13.0348 12.0001 12.6666 12.0001C12.2984 12.0001 11.9999 12.2986 11.9999 12.6667C11.9999 13.0349 12.2984 13.3334 12.6666 13.3334Z" fill="#031D42"/>
<path fill-rule="evenodd" clip-rule="evenodd" d="M4.11698 5.62286C4.32527 5.31924 4.74024 5.24195 5.04386 5.45024L7.62294 7.21949C7.8502 7.37538 8.14995 7.37538 8.3772 7.21949L10.9563 5.45024C11.2599 5.24195 11.6749 5.31924 11.8832 5.62286C12.0914 5.92647 12.0142 6.34145 11.7105 6.54973L9.13145 8.31898C8.4497 8.78666 7.55045 8.78666 6.86869 8.31898L4.2896 6.54973C3.98599 6.34145 3.9087 5.92647 4.11698 5.62286Z" fill="#031D42"/>
<path fill-rule="evenodd" clip-rule="evenodd" d="M5.17264 2.66675H10.8277C11.3644 2.66674 11.8073 2.66673 12.1681 2.69621C12.5428 2.72683 12.8873 2.79254 13.2108 2.9574C13.7126 3.21306 14.1205 3.62101 14.3762 4.12277C14.5411 4.44633 14.6068 4.7908 14.6374 5.16553C14.6669 5.52632 14.6669 5.96923 14.6669 6.50587V8.66675C14.6669 9.03494 14.3684 9.33342 14.0002 9.33342C13.632 9.33342 13.3335 9.03494 13.3335 8.66675V6.53342C13.3335 5.96236 13.333 5.57417 13.3085 5.27411C13.2846 4.98183 13.2413 4.83236 13.1882 4.72809C13.0604 4.47721 12.8564 4.27324 12.6055 4.14541C12.5012 4.09228 12.3518 4.049 12.0595 4.02512C11.7594 4.0006 11.3712 4.00008 10.8002 4.00008H5.20017C4.62912 4.00008 4.24092 4.0006 3.94086 4.02512C3.64858 4.049 3.49911 4.09228 3.39485 4.14541C3.14396 4.27324 2.93999 4.47721 2.81216 4.72809C2.75903 4.83236 2.71575 4.98183 2.69187 5.27411C2.66735 5.57417 2.66683 5.96236 2.66683 6.53342V9.46675C2.66683 10.0378 2.66735 10.426 2.69187 10.7261C2.71575 11.0183 2.75903 11.1678 2.81216 11.2721C2.93999 11.523 3.14396 11.7269 3.39485 11.8548C3.49911 11.9079 3.64858 11.9512 3.94086 11.975C4.24092 11.9996 4.62912 12.0001 5.20017 12.0001H8.00018C8.36837 12.0001 8.66684 12.2986 8.66684 12.6667C8.66684 13.0349 8.36837 13.3334 8.00018 13.3334H5.17265C4.636 13.3334 4.19309 13.3334 3.83228 13.304C3.45755 13.2733 3.11308 13.2076 2.78952 13.0428C2.28776 12.7871 1.87981 12.3792 1.62415 11.8774C1.45929 11.5538 1.39358 11.2094 1.36296 10.8346C1.33348 10.4738 1.33349 10.0309 1.3335 9.49428V6.50588C1.33349 5.96924 1.33348 5.52633 1.36296 5.16553C1.39358 4.7908 1.45929 4.44633 1.62415 4.12277C1.87981 3.62101 2.28776 3.21306 2.78952 2.9574C3.11308 2.79254 3.45755 2.72683 3.83228 2.69621C4.19308 2.66673 4.63599 2.66674 5.17264 2.66675Z" fill="#031D42"/>
</svg>
