<svg width="16" height="16" viewBox="0 0 16 16" fill="none" xmlns="http://www.w3.org/2000/svg">
<path fill-rule="evenodd" clip-rule="evenodd" d="M7.99992 2.66659C5.0544 2.66659 2.66659 5.0544 2.66659 7.99992C2.66659 10.9454 5.0544 13.3333 7.99992 13.3333C10.9454 13.3333 13.3333 10.9454 13.3333 7.99992C13.3333 5.0544 10.9454 2.66659 7.99992 2.66659ZM1.33325 7.99992C1.33325 4.31802 4.31802 1.33325 7.99992 1.33325C11.6818 1.33325 14.6666 4.31802 14.6666 7.99992C14.6666 11.6818 11.6818 14.6666 7.99992 14.6666C4.31802 14.6666 1.33325 11.6818 1.33325 7.99992Z" fill="white"/>
<path fill-rule="evenodd" clip-rule="evenodd" d="M8.00008 4.66675C8.36827 4.66675 8.66675 4.96522 8.66675 5.33341V7.33341H10.6667C11.0349 7.33341 11.3334 7.63189 11.3334 8.00008C11.3334 8.36827 11.0349 8.66675 10.6667 8.66675H8.66675V10.6667C8.66675 11.0349 8.36827 11.3334 8.00008 11.3334C7.63189 11.3334 7.33341 11.0349 7.33341 10.6667V8.66675H5.33341C4.96522 8.66675 4.66675 8.36827 4.66675 8.00008C4.66675 7.63189 4.96522 7.33341 5.33341 7.33341H7.33341V5.33341C7.33341 4.96522 7.63189 4.66675 8.00008 4.66675Z" fill="white"/>
</svg>
