<svg width="16" height="16" viewBox="0 0 16 16" fill="none"
  xmlns="http://www.w3.org/2000/svg">
  <path fill-rule="evenodd" clip-rule="evenodd" d="M7.44105 2H8.55911C8.91054 1.99999 9.21372 1.99998 9.46344 2.02038C9.727 2.04191 9.98914 2.08946 10.2414 2.21799C10.6177 2.40973 10.9237 2.7157 11.1154 3.09202C11.244 3.34427 11.2915 3.60642 11.313 3.86998C11.3334 4.1197 11.3334 4.42288 11.3334 4.77432V8H4.66675L4.66675 4.77431C4.66674 4.42287 4.66673 4.1197 4.68713 3.86998C4.70866 3.60642 4.75621 3.34427 4.88474 3.09202C5.07648 2.7157 5.38244 2.40973 5.75877 2.21799C6.01102 2.08946 6.27317 2.04191 6.53673 2.02038C6.78645 1.99998 7.08962 1.99999 7.44105 2ZM6.64531 3.34929C6.4642 3.36408 6.39705 3.3892 6.36409 3.406C6.23865 3.46991 6.13666 3.5719 6.07275 3.69734C6.05595 3.7303 6.03083 3.79745 6.01603 3.97856C6.0006 4.16745 6.00008 4.41563 6.00008 4.8V6.66667H10.0001V4.8C10.0001 4.41563 9.99956 4.16745 9.98413 3.97856C9.96933 3.79745 9.94422 3.7303 9.92742 3.69734C9.86351 3.5719 9.76152 3.46991 9.63608 3.406C9.60311 3.3892 9.53597 3.36408 9.35486 3.34929C9.16597 3.33385 8.91779 3.33333 8.53342 3.33333H7.46675C7.08238 3.33333 6.8342 3.33385 6.64531 3.34929Z" fill="white"/>
  <path fill-rule="evenodd" clip-rule="evenodd" d="M4.7743 6.66675H11.2257C11.5771 6.66674 11.8803 6.66673 12.13 6.68713C12.3936 6.70866 12.6557 6.75621 12.908 6.88474C13.2843 7.07648 13.5903 7.38244 13.782 7.75877C13.9105 8.01102 13.9581 8.27317 13.9796 8.53673C14 8.78644 14 9.08961 14 9.44104V9.89246C14 10.2439 14 10.5471 13.9796 10.7968C13.9581 11.0603 13.9105 11.3225 13.782 11.5747C13.5903 11.9511 13.2843 12.257 12.908 12.4488C12.6557 12.5773 12.3936 12.6248 12.13 12.6464C11.8803 12.6668 11.5771 12.6668 11.2257 12.6667H10V11.3334H11.2C11.5844 11.3334 11.8326 11.3329 12.0214 11.3175C12.2026 11.3027 12.2697 11.2775 12.3027 11.2608C12.4281 11.1968 12.5301 11.0949 12.594 10.9694C12.6108 10.9364 12.6359 10.8693 12.6507 10.6882C12.6661 10.4993 12.6667 10.2511 12.6667 9.86675V9.46675C12.6667 9.08238 12.6661 8.8342 12.6507 8.64531C12.6359 8.4642 12.6108 8.39705 12.594 8.36409C12.5301 8.23865 12.4281 8.13666 12.3027 8.07274C12.2697 8.05595 12.2026 8.03083 12.0214 8.01603C11.8326 8.0006 11.5844 8.00008 11.2 8.00008H4.8C4.41563 8.00008 4.16745 8.0006 3.97856 8.01603C3.79745 8.03083 3.7303 8.05595 3.69734 8.07274C3.5719 8.13666 3.46991 8.23865 3.406 8.36409C3.3892 8.39705 3.36408 8.4642 3.34929 8.64531C3.33385 8.8342 3.33333 9.08238 3.33333 9.46675V9.86675C3.33333 10.2511 3.33385 10.4993 3.34929 10.6882C3.36408 10.8693 3.3892 10.9364 3.406 10.9694C3.46991 11.0949 3.5719 11.1968 3.69734 11.2608C3.7303 11.2775 3.79745 11.3027 3.97856 11.3175C4.16745 11.3329 4.41563 11.3334 4.8 11.3334H6V12.6667H4.77432C4.42288 12.6668 4.1197 12.6668 3.86998 12.6464C3.60642 12.6248 3.34427 12.5773 3.09202 12.4488C2.7157 12.257 2.40973 11.9511 2.21799 11.5747C2.08946 11.3225 2.04191 11.0603 2.02038 10.7968C1.99998 10.5471 1.99999 10.2439 2 9.89245V9.44105C1.99999 9.08962 1.99998 8.78645 2.02038 8.53673C2.04191 8.27317 2.08946 8.01102 2.21799 7.75877C2.40973 7.38244 2.7157 7.07648 3.09202 6.88474C3.34427 6.75621 3.60642 6.70866 3.86998 6.68713C4.1197 6.66673 4.42287 6.66674 4.7743 6.66675Z" fill="white"/>
  <path fill-rule="evenodd" clip-rule="evenodd" d="M4.66675 9.33325H11.3334V11.2256C11.3334 11.577 11.3334 11.8802 11.313 12.1299C11.2915 12.3935 11.244 12.6556 11.1154 12.9079C10.9237 13.2842 10.6177 13.5902 10.2414 13.7819C9.98914 13.9105 9.727 13.958 9.46344 13.9795C9.21372 13.9999 8.91054 13.9999 8.55911 13.9999H7.44105C7.08962 13.9999 6.78645 13.9999 6.53673 13.9795C6.27317 13.958 6.01102 13.9105 5.75877 13.7819C5.38244 13.5902 5.07648 13.2842 4.88474 12.9079C4.75621 12.6556 4.70866 12.3935 4.68713 12.1299C4.66673 11.8802 4.66674 11.577 4.66675 11.2256C4.66675 11.2171 4.66675 11.2085 4.66675 11.1999V9.33325ZM6.00008 10.6666V11.1999C6.00008 11.5843 6.0006 11.8325 6.01603 12.0214C6.03083 12.2025 6.05595 12.2696 6.07275 12.3026C6.13666 12.428 6.23865 12.53 6.36409 12.5939C6.39705 12.6107 6.4642 12.6358 6.64531 12.6506C6.8342 12.6661 7.08238 12.6666 7.46675 12.6666H8.53342C8.91779 12.6666 9.16597 12.6661 9.35486 12.6506C9.53597 12.6358 9.60311 12.6107 9.63608 12.5939C9.76152 12.53 9.86351 12.428 9.92742 12.3026C9.94422 12.2696 9.96933 12.2025 9.98413 12.0214C9.99956 11.8325 10.0001 11.5843 10.0001 11.1999V10.6666H6.00008Z" fill="white"/>
</svg>
