<svg width="32" height="32" viewBox="0 0 32 32" fill="none" xmlns="http://www.w3.org/2000/svg">
<path fill-rule="evenodd" clip-rule="evenodd" d="M12.0002 21.3334C9.79102 21.3334 8.00016 23.1242 8.00016 25.3334C8.00016 26.0697 8.59712 26.6667 9.3335 26.6667H22.6668C23.4032 26.6667 24.0002 26.0697 24.0002 25.3334C24.0002 23.1242 22.2093 21.3334 20.0002 21.3334H12.0002ZM5.3335 25.3334C5.3335 21.6515 8.31826 18.6667 12.0002 18.6667H20.0002C23.6821 18.6667 26.6668 21.6515 26.6668 25.3334C26.6668 27.5425 24.876 29.3334 22.6668 29.3334H9.3335C7.12436 29.3334 5.3335 27.5425 5.3335 25.3334Z" fill="white"/>
<path fill-rule="evenodd" clip-rule="evenodd" d="M16.0002 5.33335C13.791 5.33335 12.0002 7.12422 12.0002 9.33335C12.0002 11.5425 13.791 13.3334 16.0002 13.3334C18.2093 13.3334 20.0002 11.5425 20.0002 9.33335C20.0002 7.12422 18.2093 5.33335 16.0002 5.33335ZM9.3335 9.33335C9.3335 5.65146 12.3183 2.66669 16.0002 2.66669C19.6821 2.66669 22.6668 5.65146 22.6668 9.33335C22.6668 13.0153 19.6821 16 16.0002 16C12.3183 16 9.3335 13.0153 9.3335 9.33335Z" fill="white"/>
</svg>
