<svg width="16" height="16" viewBox="0 0 16 16" fill="none" xmlns="http://www.w3.org/2000/svg">
<path fill-rule="evenodd" clip-rule="evenodd" d="M13.3349 4.21358C11.4956 1.54052 7.92887 0.54255 4.92425 2.008C1.61498 3.62204 0.240722 7.61317 1.85476 10.9224C3.4688 14.2317 7.45993 15.606 10.7692 13.9919C12.0998 13.3429 13.1534 12.2898 13.8037 10.9938C13.9688 10.6647 13.8359 10.2641 13.5068 10.099C13.1777 9.93384 12.7771 10.0668 12.612 10.3959C12.0917 11.4328 11.2502 12.2738 10.1847 12.7935C7.53728 14.0848 4.34438 12.9854 3.05315 10.3379C1.76192 7.69053 2.86133 4.49763 5.50874 3.2064C8.04631 1.96874 11.085 2.92745 12.4699 5.3405H11.3349C10.9667 5.3405 10.6682 5.63898 10.6682 6.00717C10.6682 6.37536 10.9667 6.67383 11.3349 6.67383H14.0015C14.3697 6.67383 14.6682 6.37536 14.6682 6.00717V3.3405C14.6682 2.97231 14.3697 2.67383 14.0015 2.67383C13.6334 2.67383 13.3349 2.97231 13.3349 3.3405V4.21358Z" fill="#6B92FF"/>
</svg>
