<svg width="16" height="16" viewBox="0 0 16 16" fill="none" xmlns="http://www.w3.org/2000/svg">
<path fill-rule="evenodd" clip-rule="evenodd" d="M1.33325 7.99992C1.33325 4.31802 4.31802 1.33325 7.99992 1.33325C11.6818 1.33325 14.6666 4.31802 14.6666 7.99992C14.6666 11.6818 11.6818 14.6666 7.99992 14.6666C4.31802 14.6666 1.33325 11.6818 1.33325 7.99992Z" fill="#FC5A5A"/>
<path fill-rule="evenodd" clip-rule="evenodd" d="M5.52851 5.52851C5.78886 5.26816 6.21097 5.26816 6.47132 5.52851L7.99992 7.05711L9.52851 5.52851C9.78886 5.26816 10.211 5.26816 10.4713 5.52851C10.7317 5.78886 10.7317 6.21097 10.4713 6.47132L8.94273 7.99992L10.4713 9.52851C10.7317 9.78886 10.7317 10.211 10.4713 10.4713C10.211 10.7317 9.78886 10.7317 9.52851 10.4713L7.99992 8.94273L6.47132 10.4713C6.21097 10.7317 5.78886 10.7317 5.52851 10.4713C5.26816 10.211 5.26816 9.78886 5.52851 9.52851L7.05711 7.99992L5.52851 6.47132C5.26816 6.21097 5.26816 5.78886 5.52851 5.52851Z" fill="white"/>
</svg>
