<svg width="24" height="24" viewBox="0 0 24 24" fill="none"
  xmlns="http://www.w3.org/2000/svg">
  <path fill-rule="evenodd" clip-rule="evenodd" d="M12 21.9998C17.5228 21.9998 22 17.5226 22 11.9998C22 6.47691 17.5228 1.99976 12 1.99976C6.47715 1.99976 2 6.47691 2 11.9998C2 17.5226 6.47715 21.9998 12 21.9998Z" fill="#3DD598"/>
  <path d="M8.96443 11.177C8.51092 10.7336 7.78036 10.7383 7.33269 11.1875C6.88501 11.6366 6.88974 12.3602 7.34325 12.8037L10.2751 15.6702C10.7575 16.1418 11.5443 16.102 11.9757 15.5843L16.7361 9.87C17.1417 9.38316 17.072 8.66285 16.5805 8.26114C16.089 7.85942 15.3617 7.92843 14.9561 8.41527L10.9986 13.1658L8.96443 11.177Z" fill="white"/>
</svg>
