<svg width="24" height="24" viewBox="0 2 20 22" fill="none"
  xmlns="http://www.w3.org/2000/svg">
  <path d="M1.99988 7C1.99988 6.44772 2.44759 6 2.99988 6H5.99988C6.55216 6 6.99988 6.44772 6.99988 7C6.99988 7.55228 6.55216 8 5.99988 8H2.99988C2.44759 8 1.99988 7.55228 1.99988 7Z" fill="#6B92FF"/>
  <path d="M2.99988 16C2.44759 16 1.99988 16.4477 1.99988 17C1.99988 17.5523 2.44759 18 2.99988 18H9.99988C10.5522 18 10.9999 17.5523 10.9999 17C10.9999 16.4477 10.5522 16 9.99988 16H2.99988Z" fill="#6B92FF"/>
  <path d="M17.9999 16C17.4476 16 16.9999 16.4477 16.9999 17C16.9999 17.5523 17.4476 18 17.9999 18H20.9999C21.5522 18 21.9999 17.5523 21.9999 17C21.9999 16.4477 21.5522 16 20.9999 16H17.9999Z" fill="#6B92FF"/>
  <path d="M13.9999 6C13.4476 6 12.9999 6.44772 12.9999 7C12.9999 7.55228 13.4476 8 13.9999 8H20.9999C21.5522 8 21.9999 7.55228 21.9999 7C21.9999 6.44772 21.5522 6 20.9999 6H13.9999Z" fill="#6B92FF"/>
  <path d="M7.99988 10C9.65673 10 10.9999 8.65685 10.9999 7C10.9999 5.34315 9.65673 4 7.99988 4C6.34302 4 4.99988 5.34315 4.99988 7C4.99988 8.65685 6.34302 10 7.99988 10Z" fill="#6B92FF"/>
  <path d="M15.9999 20C17.6567 20 18.9999 18.6569 18.9999 17C18.9999 15.3431 17.6567 14 15.9999 14C14.343 14 12.9999 15.3431 12.9999 17C12.9999 18.6569 14.343 20 15.9999 20Z" fill="#6B92FF"/>
</svg>
