<svg width="16" height="16" viewBox="0 0 16 16" fill="none" xmlns="http://www.w3.org/2000/svg">
<path fill-rule="evenodd" clip-rule="evenodd" d="M9.74495 6.45837C9.52676 6.80001 9.24801 7.09923 8.92383 7.34089C9.43764 7.75328 10.0901 8 10.8002 8C12.4571 8 13.8002 6.65685 13.8002 5C13.8002 3.34315 12.4571 2 10.8002 2C10.2749 2 9.78109 2.13503 9.35164 2.37228C9.6284 2.66386 9.85297 3.00545 10.0104 3.38209C10.2489 3.26546 10.5169 3.2 10.8002 3.2C11.7943 3.2 12.6002 4.00589 12.6002 5C12.6002 5.99411 11.7943 6.8 10.8002 6.8C10.406 6.8 10.0414 6.67329 9.74495 6.45837ZM12.2137 12.8002C12.1288 13.23 11.9448 13.6348 11.6803 14.0002H13.8002C14.7944 14.0002 15.6002 13.1944 15.6002 12.2002C15.6002 10.5434 14.2571 9.20025 12.6002 9.20025H10.0496C10.6803 9.50001 11.2114 9.91211 11.5955 10.4002H12.6002C13.5944 10.4002 14.4002 11.2061 14.4002 12.2002C14.4002 12.5316 14.1316 12.8002 13.8002 12.8002H12.2137Z" fill="white"/>
<path fill-rule="evenodd" clip-rule="evenodd" d="M3.99984 10.6666C2.89527 10.6666 1.99984 11.562 1.99984 12.6666C1.99984 13.0348 2.29831 13.3333 2.6665 13.3333H9.33317C9.70136 13.3333 9.99984 13.0348 9.99984 12.6666C9.99984 11.562 9.10441 10.6666 7.99984 10.6666H3.99984ZM0.666504 12.6666C0.666504 10.8256 2.15889 9.33325 3.99984 9.33325H7.99984C9.84079 9.33325 11.3332 10.8256 11.3332 12.6666C11.3332 13.7712 10.4377 14.6666 9.33317 14.6666H2.6665C1.56193 14.6666 0.666504 13.7712 0.666504 12.6666Z" fill="white"/>
<path fill-rule="evenodd" clip-rule="evenodd" d="M5.99984 2.66659C4.89527 2.66659 3.99984 3.56202 3.99984 4.66658C3.99984 5.77115 4.89527 6.66658 5.99984 6.66658C7.10441 6.66658 7.99984 5.77115 7.99984 4.66658C7.99984 3.56202 7.10441 2.66659 5.99984 2.66659ZM2.6665 4.66658C2.6665 2.82564 4.15889 1.33325 5.99984 1.33325C7.84079 1.33325 9.33317 2.82564 9.33317 4.66658C9.33317 6.50753 7.84079 7.99992 5.99984 7.99992C4.15889 7.99992 2.6665 6.50753 2.6665 4.66658Z" fill="white"/>
</svg>
